<svg  viewBox="0 0 132 33" fill="none" xmlns="http://www.w3.org/2000/svg">
<path d="M5.70263 30.032C4.74263 30.032 3.96396 29.7227 3.36663 29.104C2.76929 28.464 2.31063 27.6213 1.99063 26.576C1.67063 25.5093 1.45729 24.3467 1.35063 23.088C1.24396 21.8293 1.19063 20.5813 1.19063 19.344C1.19063 17.8933 1.38263 16.4747 1.76663 15.088C2.17196 13.7013 2.77996 12.4533 3.59063 11.344C4.42263 10.2133 5.46796 9.31733 6.72663 8.656C7.98529 7.99467 9.47863 7.664 11.2066 7.664C12.956 7.664 14.5346 8.02667 15.9426 8.752C17.372 9.47733 18.5133 10.512 19.3666 11.856C20.22 13.2 20.6466 14.8 20.6466 16.656C20.6466 18.32 20.3906 19.7493 19.8786 20.944C19.3666 22.1387 18.6733 23.12 17.7986 23.888C16.9453 24.6347 15.9853 25.1893 14.9186 25.552C13.8733 25.9147 12.8066 26.0853 11.7186 26.064C10.6306 26.0213 9.61729 25.808 8.67863 25.424C8.78529 25.936 8.83862 26.4587 8.83862 26.992C8.85996 27.5253 8.77463 28.0267 8.58263 28.496C8.41196 28.944 8.09196 29.3173 7.62263 29.616C7.17463 29.8933 6.53463 30.032 5.70263 30.032ZM11.5266 21.072C12.2946 21.072 12.956 20.7947 13.5106 20.24C14.0866 19.664 14.3746 19.0027 14.3746 18.256C14.3746 17.488 14.0866 16.8267 13.5106 16.272C12.956 15.696 12.2946 15.408 11.5266 15.408C10.7586 15.408 10.0866 15.696 9.51063 16.272C8.95596 16.8267 8.67863 17.488 8.67863 18.256C8.67863 19.0027 8.95596 19.664 9.51063 20.24C10.0866 20.7947 10.7586 21.072 11.5266 21.072ZM29.0039 30C27.4039 30 25.9959 29.6907 24.7799 29.072C23.5852 28.432 22.6465 27.568 21.9639 26.48C21.3025 25.3707 20.9719 24.1013 20.9719 22.672C20.9719 21.2853 21.3025 20.0053 21.9639 18.832C22.6465 17.6587 23.5745 16.72 24.7479 16.016C25.9425 15.312 27.3079 14.96 28.8439 14.96C30.2732 14.96 31.4999 15.248 32.5239 15.824C33.5479 16.4 34.3265 17.136 34.8599 18.032C35.4145 18.9067 35.6919 19.8347 35.6919 20.816C35.6919 21.7973 35.4679 22.608 35.0199 23.248C34.5719 23.8667 33.9852 24.3467 33.2599 24.688C32.5559 25.008 31.7985 25.2213 30.9879 25.328C30.1772 25.4347 29.3985 25.456 28.6519 25.392C27.9052 25.3067 27.2759 25.1787 26.7639 25.008C27.1479 25.6267 27.6279 26.0533 28.2039 26.288C28.8012 26.5013 29.4199 26.5973 30.0599 26.576C30.7212 26.5333 31.3185 26.4587 31.8519 26.352C32.5132 26.2027 33.0572 26.2347 33.4839 26.448C33.9105 26.6613 34.1345 27.0027 34.1559 27.472C34.1772 27.856 34.0385 28.24 33.7399 28.624C33.4625 29.008 32.9505 29.3387 32.2039 29.616C31.4572 29.872 30.3905 30 29.0039 30ZM26.8599 21.104C27.0732 21.4453 27.3825 21.6907 27.7879 21.84C28.1932 21.968 28.5985 22.0107 29.0039 21.968C29.4305 21.9253 29.7825 21.808 30.0599 21.616C30.3585 21.424 30.5079 21.1573 30.5079 20.816C30.5079 20.4533 30.3585 20.1333 30.0599 19.856C29.7825 19.5573 29.3345 19.408 28.7159 19.408C28.1185 19.408 27.6599 19.6 27.3399 19.984C27.0199 20.3467 26.8599 20.72 26.8599 21.104ZM46.6434 30C45.8967 30 45.1394 29.8507 44.3714 29.552C43.6034 29.2533 42.91 28.816 42.2914 28.24C41.694 27.664 41.2567 26.9707 40.9794 26.16C40.7874 25.6267 40.6487 24.9653 40.5634 24.176C40.478 23.3867 40.414 22.544 40.3714 21.648C40.35 20.752 40.3394 19.8773 40.3394 19.024C39.5074 19.0027 38.7074 18.928 37.9394 18.8C37.1927 18.672 36.574 18.4373 36.0834 18.096C35.614 17.7333 35.3794 17.2107 35.3794 16.528C35.3794 15.696 35.6034 15.0773 36.0514 14.672C36.4994 14.2453 37.0967 13.968 37.8434 13.84C38.6114 13.6907 39.4434 13.6053 40.3394 13.584C40.3607 12.9227 40.414 12.2507 40.4994 11.568C40.606 10.864 40.7767 10.2133 41.0114 9.616C41.246 9.01867 41.5767 8.53867 42.0034 8.176C42.43 7.792 42.9847 7.6 43.6674 7.6C44.5847 7.6 45.246 7.888 45.6514 8.464C46.078 9.04 46.3447 9.78667 46.4514 10.704C46.558 11.6213 46.6007 12.5813 46.5794 13.584C47.6887 13.5627 48.67 13.6053 49.5234 13.712C50.3767 13.8187 51.0487 14.0533 51.5394 14.416C52.03 14.7787 52.2754 15.3547 52.2754 16.144C52.2754 16.9547 51.998 17.5627 51.4434 17.968C50.8887 18.3733 50.1634 18.6507 49.2674 18.8C48.3714 18.928 47.422 19.0027 46.4194 19.024C46.4194 19.4293 46.4087 19.856 46.3874 20.304C46.3874 20.7307 46.3874 21.168 46.3874 21.616C46.3874 22.832 46.4727 23.696 46.6434 24.208C46.7714 24.592 46.942 24.8373 47.1554 24.944C47.39 25.0507 47.678 25.1147 48.0194 25.136C48.3607 25.136 48.7767 25.2 49.2674 25.328C49.758 25.4347 50.142 25.7013 50.4194 26.128C50.6967 26.5333 50.8354 27.056 50.8354 27.696C50.8354 28.4213 50.4514 28.9867 49.6834 29.392C48.9367 29.7973 47.9234 30 46.6434 30ZM62.2941 30.032C61.2701 30.032 60.2568 29.9253 59.2541 29.712C58.2515 29.4773 57.3448 29.1573 56.5341 28.752C55.7235 28.3467 55.0728 27.856 54.5821 27.28C54.1128 26.704 53.8781 26.0533 53.8781 25.328C53.8781 24.432 54.1448 23.7387 54.6781 23.248C55.2328 22.736 55.9048 22.48 56.6941 22.48C57.4195 22.48 58.0168 22.5973 58.4861 22.832C58.9555 23.0453 59.3821 23.2693 59.7661 23.504C60.1715 23.7173 60.5981 23.824 61.0461 23.824C61.7501 23.824 62.1021 23.5467 62.1021 22.992C62.1021 22.7147 61.8568 22.4693 61.3661 22.256C60.8755 22.0427 60.2461 21.7973 59.4781 21.52C58.7101 21.2213 57.9101 20.8267 57.0781 20.336C55.8408 19.5893 54.9981 18.7893 54.5501 17.936C54.1021 17.0613 53.8781 16.0053 53.8781 14.768C53.8781 13.5093 54.2728 12.336 55.0621 11.248C55.8515 10.16 56.9181 9.28533 58.2621 8.624C59.6061 7.96266 61.1101 7.632 62.7741 7.632C64.3741 7.632 65.8248 7.87733 67.1261 8.368C68.4275 8.85866 69.4515 9.52 70.1981 10.352C70.9661 11.1627 71.3501 12.0907 71.3501 13.136C71.3501 13.9893 71.1688 14.672 70.8061 15.184C70.4648 15.696 70.0275 16.0693 69.4941 16.304C68.9821 16.5387 68.4808 16.656 67.9901 16.656C67.2648 16.656 66.7208 16.6133 66.3581 16.528C65.9955 16.4427 65.7075 16.3573 65.4941 16.272C65.3021 16.1653 65.0888 16.0693 64.8541 15.984C64.6408 15.8987 64.3101 15.856 63.8621 15.856C63.6061 15.856 63.3501 15.9413 63.0941 16.112C62.8381 16.2827 62.7101 16.5387 62.7101 16.88C62.7101 17.2 62.9341 17.456 63.3821 17.648C63.8515 17.8187 64.3421 18 64.8541 18.192C66.7528 18.8747 68.1928 19.6853 69.1741 20.624C70.1555 21.5413 70.6461 22.7573 70.6461 24.272C70.6461 26.0853 69.9101 27.504 68.4381 28.528C66.9875 29.5307 64.9395 30.032 62.2941 30.032ZM77.4194 30C76.374 30 75.414 29.84 74.5394 29.52C73.686 29.2 73.0034 28.72 72.4914 28.08C71.9794 27.4187 71.7234 26.5867 71.7234 25.584C71.7234 24.7307 71.9794 24.0053 72.4914 23.408C73.0034 22.8107 73.686 22.352 74.5394 22.032C75.414 21.712 76.374 21.552 77.4194 21.552C78.038 21.552 78.6034 21.6053 79.1154 21.712C79.6274 21.7973 79.9794 21.904 80.1714 22.032C80.1714 21.5413 79.9687 21.1147 79.5634 20.752C79.158 20.368 78.454 20.176 77.4514 20.176C76.982 20.176 76.6087 20.2187 76.3314 20.304C76.0754 20.368 75.8407 20.4533 75.6274 20.56C75.414 20.6667 75.1687 20.7627 74.8914 20.848C74.6354 20.912 74.2834 20.944 73.8354 20.944C73.174 20.944 72.6407 20.7733 72.2354 20.432C71.8514 20.0693 71.6594 19.5253 71.6594 18.8C71.6594 18.1387 71.8407 17.5733 72.2034 17.104C72.5874 16.6133 73.078 16.208 73.6754 15.888C74.2727 15.568 74.9127 15.3333 75.5954 15.184C76.2994 15.0347 76.9714 14.96 77.6114 14.96C79.51 14.96 81.0567 15.312 82.2514 16.016C83.446 16.6987 84.3314 17.5947 84.9074 18.704C85.4834 19.8133 85.7714 21.0187 85.7714 22.32C85.7714 23.0453 85.7074 23.7173 85.5794 24.336C85.4727 24.9547 85.3234 25.4347 85.1314 25.776C85.43 26.032 85.654 26.3307 85.8034 26.672C85.974 27.0133 86.0594 27.3653 86.0594 27.728C86.0594 28.3253 85.8567 28.8587 85.4514 29.328C85.0674 29.776 84.5127 30 83.7874 30C83.2327 30 82.7954 29.9147 82.4754 29.744C82.1554 29.5733 81.8354 29.3493 81.5154 29.072C81.0034 29.3707 80.438 29.6053 79.8194 29.776C79.2007 29.9253 78.4007 30 77.4194 30ZM78.0594 26.768C78.55 26.768 78.9127 26.672 79.1474 26.48C79.4034 26.2667 79.5314 26.032 79.5314 25.776C79.5314 25.52 79.4034 25.296 79.1474 25.104C78.9127 24.8907 78.55 24.784 78.0594 24.784C77.59 24.784 77.2274 24.8907 76.9714 25.104C76.7154 25.296 76.5874 25.52 76.5874 25.776C76.5874 26.032 76.7154 26.2667 76.9714 26.48C77.2274 26.672 77.59 26.768 78.0594 26.768ZM91.4034 29.936C90.3154 29.936 89.5047 29.5307 88.9714 28.72C88.438 27.888 88.086 26.6507 87.9154 25.008C87.7447 23.344 87.6594 21.264 87.6594 18.768C87.6594 17.1253 87.6807 15.6213 87.7234 14.256C87.7874 12.8907 87.9367 11.7173 88.1714 10.736C88.406 9.73333 88.7794 8.96533 89.2914 8.432C89.8034 7.87733 90.518 7.6 91.4354 7.6C92.3527 7.6 93.0674 7.87733 93.5794 8.432C94.0914 8.96533 94.4647 9.73333 94.6994 10.736C94.934 11.7173 95.0727 12.8907 95.1154 14.256C95.1794 15.6213 95.2114 17.1253 95.2114 18.768C95.2114 22.5227 94.9447 25.328 94.4114 27.184C93.8994 29.0187 92.8967 29.936 91.4034 29.936ZM105.168 29.968C104.784 29.968 104.346 29.9253 103.856 29.84C103.365 29.7547 102.778 29.4453 102.096 28.912C101.626 28.528 101.093 27.9307 100.496 27.12C99.8983 26.3093 99.3116 25.392 98.7356 24.368C98.181 23.3227 97.7223 22.256 97.3596 21.168C96.997 20.0587 96.8156 19.024 96.8156 18.064C96.8156 17.1253 97.0823 16.3787 97.6156 15.824C98.1703 15.248 98.7783 14.96 99.4396 14.96C100.208 14.96 100.858 15.216 101.392 15.728C101.946 16.2187 102.426 16.88 102.832 17.712C103.258 18.544 103.642 19.4613 103.984 20.464C104.346 21.4667 104.698 22.4693 105.04 23.472C105.402 22.4693 105.754 21.4667 106.096 20.464C106.458 19.44 106.853 18.512 107.28 17.68C107.728 16.848 108.229 16.1867 108.784 15.696C109.338 15.184 109.989 14.9387 110.736 14.96C111.354 14.9813 111.92 15.2267 112.432 15.696C112.944 16.144 113.2 16.8693 113.2 17.872C113.2 18.9173 113.018 19.984 112.656 21.072C112.293 22.16 111.845 23.184 111.312 24.144C110.8 25.104 110.277 25.9467 109.744 26.672C109.232 27.3973 108.816 27.92 108.496 28.24C108.026 28.7733 107.493 29.2 106.896 29.52C106.298 29.8187 105.722 29.968 105.168 29.968ZM121.784 30.032C120.206 30.0533 118.819 29.7333 117.624 29.072C116.451 28.3893 115.523 27.472 114.84 26.32C114.179 25.1467 113.827 23.856 113.784 22.448C113.763 20.9973 114.094 19.7173 114.776 18.608C115.459 17.4773 116.408 16.5813 117.624 15.92C118.84 15.2587 120.227 14.928 121.784 14.928C123.32 14.9067 124.675 15.2267 125.848 15.888C127.043 16.5493 127.992 17.4453 128.696 18.576C129.4 19.7067 129.774 20.9973 129.816 22.448C129.838 23.8347 129.507 25.104 128.824 26.256C128.142 27.3867 127.192 28.2933 125.976 28.976C124.76 29.6373 123.363 29.9893 121.784 30.032ZM121.88 25.36C122.456 25.36 122.958 25.136 123.384 24.688C123.811 24.24 124.024 23.7173 124.024 23.12C124.024 22.5227 123.811 22.0107 123.384 21.584C122.958 21.136 122.456 20.912 121.88 20.912C121.304 20.912 120.803 21.136 120.376 21.584C119.95 22.0107 119.736 22.5227 119.736 23.12C119.736 23.7173 119.95 24.24 120.376 24.688C120.803 25.136 121.304 25.36 121.88 25.36Z" fill="white"/>
<ellipse cx="122" cy="22.6834" rx="3.33331" ry="2.91665" fill="#FF9F1C"/>
<ellipse cx="128.667" cy="12.8501" rx="3.33331" ry="2.91665" fill="#FF9F1C"/>
<ellipse cx="122" cy="9.85012" rx="3.33331" ry="2.91665" fill="#FF9F1C"/>
<ellipse cx="115.333" cy="12.8501" rx="3.33331" ry="2.91665" fill="#FF9F1C"/>
</svg>
