<svg width="40" height="32" viewBox="0 0 40 32" fill="none" xmlns="http://www.w3.org/2000/svg">
<path d="M7.05192 19.2919L19.3596 9.29194C19.4739 9.19897 19.6097 9.12521 19.7591 9.07488C19.9085 9.02456 20.0686 8.99866 20.2304 8.99866C20.3921 8.99866 20.5523 9.02456 20.7017 9.07488C20.8511 9.12521 20.9868 9.19897 21.1012 9.29194L33.4088 19.2919C33.6398 19.4796 33.7695 19.7341 33.7695 19.9994C33.7695 20.2648 33.6398 20.5193 33.4088 20.7069C33.1779 20.8946 32.8647 21 32.5381 21C32.2115 21 31.8983 20.8946 31.6673 20.7069L20.2304 11.4132L8.79346 20.7069C8.67911 20.7999 8.54335 20.8736 8.39395 20.9238C8.24454 20.9741 8.08441 21 7.92269 21C7.76097 21 7.60084 20.9741 7.45143 20.9238C7.30203 20.8736 7.16627 20.7999 7.05192 20.7069C6.93757 20.614 6.84686 20.5037 6.78498 20.3823C6.72309 20.2609 6.69124 20.1308 6.69124 19.9994C6.69124 19.868 6.72309 19.7379 6.78498 19.6165C6.84686 19.4952 6.93757 19.3849 7.05192 19.2919Z" fill="black"/>
</svg>
