<svg width="40" height="32" viewBox="0 0 40 32" fill="none" xmlns="http://www.w3.org/2000/svg">
<path d="M33.4092 12.7075L21.1015 22.7075C20.9872 22.8005 20.8515 22.8742 20.7021 22.9246C20.5527 22.9749 20.3925 23.0008 20.2308 23.0008C20.069 23.0008 19.9089 22.9749 19.7595 22.9246C19.61 22.8742 19.4743 22.8005 19.36 22.7075L7.0523 12.7075C6.82136 12.5199 6.69162 12.2654 6.69162 12C6.69162 11.7346 6.82136 11.4801 7.0523 11.2925C7.28325 11.1049 7.59647 10.9995 7.92307 10.9995C8.24968 10.9995 8.5629 11.1049 8.79384 11.2925L20.2308 20.5863L31.6677 11.2925C31.782 11.1996 31.9178 11.1259 32.0672 11.0756C32.2166 11.0253 32.3767 10.9995 32.5385 10.9995C32.7002 10.9995 32.8603 11.0253 33.0097 11.0756C33.1591 11.1259 33.2949 11.1996 33.4092 11.2925C33.5236 11.3854 33.6143 11.4957 33.6762 11.6171C33.7381 11.7385 33.7699 11.8686 33.7699 12C33.7699 12.1314 33.7381 12.2615 33.6762 12.3829C33.6143 12.5043 33.5236 12.6146 33.4092 12.7075Z" fill="black"/>
</svg>
