<svg width="941" height="322" viewBox="0 0 941 322" fill="none" xmlns="http://www.w3.org/2000/svg">
<rect width="941" height="322" fill="white"/>
<path d="M101.2 232.2C95.2 232.2 90.3333 230.267 86.6 226.4C82.8667 222.4 80 217.133 78 210.6C76 203.933 74.6667 196.667 74 188.8C73.3333 180.933 73 173.133 73 165.4C73 156.333 74.2 147.467 76.6 138.8C79.1333 130.133 82.9333 122.333 88 115.4C93.2 108.333 99.7333 102.733 107.6 98.6C115.467 94.4667 124.8 92.4 135.6 92.4C146.533 92.4 156.4 94.6667 165.2 99.2C174.133 103.733 181.267 110.2 186.6 118.6C191.933 127 194.6 137 194.6 148.6C194.6 159 193 167.933 189.8 175.4C186.6 182.867 182.267 189 176.8 193.8C171.467 198.467 165.467 201.933 158.8 204.2C152.267 206.467 145.6 207.533 138.8 207.4C132 207.133 125.667 205.8 119.8 203.4C120.467 206.6 120.8 209.867 120.8 213.2C120.933 216.533 120.4 219.667 119.2 222.6C118.133 225.4 116.133 227.733 113.2 229.6C110.4 231.333 106.4 232.2 101.2 232.2ZM137.6 176.2C142.4 176.2 146.533 174.467 150 171C153.6 167.4 155.4 163.267 155.4 158.6C155.4 153.8 153.6 149.667 150 146.2C146.533 142.6 142.4 140.8 137.6 140.8C132.8 140.8 128.6 142.6 125 146.2C121.533 149.667 119.8 153.8 119.8 158.6C119.8 163.267 121.533 167.4 125 171C128.6 174.467 132.8 176.2 137.6 176.2ZM246.833 232C236.833 232 228.033 230.067 220.433 226.2C212.966 222.2 207.099 216.8 202.833 210C198.699 203.067 196.633 195.133 196.633 186.2C196.633 177.533 198.699 169.533 202.833 162.2C207.099 154.867 212.899 149 220.233 144.6C227.699 140.2 236.233 138 245.833 138C254.766 138 262.433 139.8 268.833 143.4C275.233 147 280.099 151.6 283.433 157.2C286.899 162.667 288.633 168.467 288.633 174.6C288.633 180.733 287.233 185.8 284.433 189.8C281.633 193.667 277.966 196.667 273.433 198.8C269.033 200.8 264.299 202.133 259.233 202.8C254.166 203.467 249.299 203.6 244.633 203.2C239.966 202.667 236.033 201.867 232.833 200.8C235.233 204.667 238.233 207.333 241.833 208.8C245.566 210.133 249.433 210.733 253.433 210.6C257.566 210.333 261.299 209.867 264.633 209.2C268.766 208.267 272.166 208.467 274.833 209.8C277.499 211.133 278.899 213.267 279.033 216.2C279.166 218.6 278.299 221 276.433 223.4C274.699 225.8 271.499 227.867 266.833 229.6C262.166 231.2 255.499 232 246.833 232ZM233.433 176.4C234.766 178.533 236.699 180.067 239.233 181C241.766 181.8 244.299 182.067 246.833 181.8C249.499 181.533 251.699 180.8 253.433 179.6C255.299 178.4 256.233 176.733 256.233 174.6C256.233 172.333 255.299 170.333 253.433 168.6C251.699 166.733 248.899 165.8 245.033 165.8C241.299 165.8 238.433 167 236.433 169.4C234.433 171.667 233.433 174 233.433 176.4ZM357.08 232C352.413 232 347.68 231.067 342.88 229.2C338.08 227.333 333.746 224.6 329.88 221C326.146 217.4 323.413 213.067 321.68 208C320.48 204.667 319.613 200.533 319.08 195.6C318.546 190.667 318.146 185.4 317.88 179.8C317.746 174.2 317.68 168.733 317.68 163.4C312.48 163.267 307.48 162.8 302.68 162C298.013 161.2 294.146 159.733 291.08 157.6C288.146 155.333 286.68 152.067 286.68 147.8C286.68 142.6 288.08 138.733 290.88 136.2C293.68 133.533 297.413 131.8 302.08 131C306.88 130.067 312.08 129.533 317.68 129.4C317.813 125.267 318.146 121.067 318.68 116.8C319.346 112.4 320.413 108.333 321.88 104.6C323.346 100.867 325.413 97.8667 328.08 95.6C330.746 93.2 334.213 92 338.48 92C344.213 92 348.346 93.8 350.88 97.4C353.546 101 355.213 105.667 355.88 111.4C356.546 117.133 356.813 123.133 356.68 129.4C363.613 129.267 369.746 129.533 375.08 130.2C380.413 130.867 384.613 132.333 387.68 134.6C390.746 136.867 392.28 140.467 392.28 145.4C392.28 150.467 390.546 154.267 387.08 156.8C383.613 159.333 379.08 161.067 373.48 162C367.88 162.8 361.946 163.267 355.68 163.4C355.68 165.933 355.613 168.6 355.48 171.4C355.48 174.067 355.48 176.8 355.48 179.6C355.48 187.2 356.013 192.6 357.08 195.8C357.88 198.2 358.946 199.733 360.28 200.4C361.746 201.067 363.546 201.467 365.68 201.6C367.813 201.6 370.413 202 373.48 202.8C376.546 203.467 378.946 205.133 380.68 207.8C382.413 210.333 383.28 213.6 383.28 217.6C383.28 222.133 380.88 225.667 376.08 228.2C371.413 230.733 365.08 232 357.08 232ZM454.897 232.2C448.497 232.2 442.164 231.533 435.897 230.2C429.63 228.733 423.964 226.733 418.897 224.2C413.83 221.667 409.764 218.6 406.697 215C403.764 211.4 402.297 207.333 402.297 202.8C402.297 197.2 403.964 192.867 407.297 189.8C410.764 186.6 414.964 185 419.897 185C424.43 185 428.164 185.733 431.097 187.2C434.03 188.533 436.697 189.933 439.097 191.4C441.63 192.733 444.297 193.4 447.097 193.4C451.497 193.4 453.697 191.667 453.697 188.2C453.697 186.467 452.164 184.933 449.097 183.6C446.03 182.267 442.097 180.733 437.297 179C432.497 177.133 427.497 174.667 422.297 171.6C414.564 166.933 409.297 161.933 406.497 156.6C403.697 151.133 402.297 144.533 402.297 136.8C402.297 128.933 404.764 121.6 409.697 114.8C414.63 108 421.297 102.533 429.697 98.4C438.097 94.2667 447.497 92.2 457.897 92.2C467.897 92.2 476.964 93.7333 485.097 96.8C493.23 99.8667 499.63 104 504.297 109.2C509.097 114.267 511.497 120.067 511.497 126.6C511.497 131.933 510.364 136.2 508.097 139.4C505.964 142.6 503.23 144.933 499.897 146.4C496.697 147.867 493.564 148.6 490.497 148.6C485.964 148.6 482.564 148.333 480.297 147.8C478.03 147.267 476.23 146.733 474.897 146.2C473.697 145.533 472.364 144.933 470.897 144.4C469.564 143.867 467.497 143.6 464.697 143.6C463.097 143.6 461.497 144.133 459.897 145.2C458.297 146.267 457.497 147.867 457.497 150C457.497 152 458.897 153.6 461.697 154.8C464.63 155.867 467.697 157 470.897 158.2C482.764 162.467 491.764 167.533 497.897 173.4C504.03 179.133 507.097 186.733 507.097 196.2C507.097 207.533 502.497 216.4 493.297 222.8C484.23 229.067 471.43 232.2 454.897 232.2ZM549.43 232C542.896 232 536.896 231 531.43 229C526.096 227 521.83 224 518.63 220C515.43 215.867 513.83 210.667 513.83 204.4C513.83 199.067 515.43 194.533 518.63 190.8C521.83 187.067 526.096 184.2 531.43 182.2C536.896 180.2 542.896 179.2 549.43 179.2C553.296 179.2 556.83 179.533 560.03 180.2C563.23 180.733 565.43 181.4 566.63 182.2C566.63 179.133 565.363 176.467 562.83 174.2C560.296 171.8 555.896 170.6 549.63 170.6C546.696 170.6 544.363 170.867 542.63 171.4C541.03 171.8 539.563 172.333 538.23 173C536.896 173.667 535.363 174.267 533.63 174.8C532.03 175.2 529.83 175.4 527.03 175.4C522.896 175.4 519.563 174.333 517.03 172.2C514.63 169.933 513.43 166.533 513.43 162C513.43 157.867 514.563 154.333 516.83 151.4C519.23 148.333 522.296 145.8 526.03 143.8C529.763 141.8 533.763 140.333 538.03 139.4C542.43 138.467 546.63 138 550.63 138C562.496 138 572.163 140.2 579.63 144.6C587.096 148.867 592.63 154.467 596.23 161.4C599.83 168.333 601.63 175.867 601.63 184C601.63 188.533 601.23 192.733 600.43 196.6C599.763 200.467 598.83 203.467 597.63 205.6C599.496 207.2 600.896 209.067 601.83 211.2C602.896 213.333 603.43 215.533 603.43 217.8C603.43 221.533 602.163 224.867 599.63 227.8C597.23 230.6 593.763 232 589.23 232C585.763 232 583.03 231.467 581.03 230.4C579.03 229.333 577.03 227.933 575.03 226.2C571.83 228.067 568.296 229.533 564.43 230.6C560.563 231.533 555.563 232 549.43 232ZM553.43 211.8C556.496 211.8 558.763 211.2 560.23 210C561.83 208.667 562.63 207.2 562.63 205.6C562.63 204 561.83 202.6 560.23 201.4C558.763 200.067 556.496 199.4 553.43 199.4C550.496 199.4 548.23 200.067 546.63 201.4C545.03 202.6 544.23 204 544.23 205.6C544.23 207.2 545.03 208.667 546.63 210C548.23 211.2 550.496 211.8 553.43 211.8ZM636.83 231.6C630.03 231.6 624.963 229.067 621.63 224C618.296 218.8 616.096 211.067 615.03 200.8C613.963 190.4 613.43 177.4 613.43 161.8C613.43 151.533 613.563 142.133 613.83 133.6C614.23 125.067 615.163 117.733 616.63 111.6C618.096 105.333 620.43 100.533 623.63 97.2C626.83 93.7333 631.296 92 637.03 92C642.763 92 647.23 93.7333 650.43 97.2C653.63 100.533 655.963 105.333 657.43 111.6C658.896 117.733 659.763 125.067 660.03 133.6C660.43 142.133 660.63 151.533 660.63 161.8C660.63 185.267 658.963 202.8 655.63 214.4C652.43 225.867 646.163 231.6 636.83 231.6ZM722.856 231.8C720.456 231.8 717.723 231.533 714.656 231C711.59 230.467 707.923 228.533 703.656 225.2C700.723 222.8 697.39 219.067 693.656 214C689.923 208.933 686.256 203.2 682.656 196.8C679.19 190.267 676.323 183.6 674.056 176.8C671.79 169.867 670.656 163.4 670.656 157.4C670.656 151.533 672.323 146.867 675.656 143.4C679.123 139.8 682.923 138 687.056 138C691.856 138 695.923 139.6 699.256 142.8C702.723 145.867 705.723 150 708.256 155.2C710.923 160.4 713.323 166.133 715.456 172.4C717.723 178.667 719.923 184.933 722.056 191.2C724.323 184.933 726.523 178.667 728.656 172.4C730.923 166 733.39 160.2 736.056 155C738.856 149.8 741.99 145.667 745.456 142.6C748.923 139.4 752.99 137.867 757.656 138C761.523 138.133 765.056 139.667 768.256 142.6C771.456 145.4 773.056 149.933 773.056 156.2C773.056 162.733 771.923 169.4 769.656 176.2C767.39 183 764.59 189.4 761.256 195.4C758.056 201.4 754.79 206.667 751.456 211.2C748.256 215.733 745.656 219 743.656 221C740.723 224.333 737.39 227 733.656 229C729.923 230.867 726.323 231.8 722.856 231.8ZM826.711 232.2C816.844 232.333 808.178 230.333 800.711 226.2C793.378 221.933 787.578 216.2 783.311 209C779.178 201.667 776.978 193.6 776.711 184.8C776.578 175.733 778.644 167.733 782.911 160.8C787.178 153.733 793.111 148.133 800.711 144C808.311 139.867 816.978 137.8 826.711 137.8C836.311 137.667 844.778 139.667 852.111 143.8C859.578 147.933 865.511 153.533 869.911 160.6C874.311 167.667 876.644 175.733 876.911 184.8C877.044 193.467 874.978 201.4 870.711 208.6C866.444 215.667 860.511 221.333 852.911 225.6C845.311 229.733 836.578 231.933 826.711 232.2ZM827.311 203C830.911 203 834.044 201.6 836.711 198.8C839.378 196 840.711 192.733 840.711 189C840.711 185.267 839.378 182.067 836.711 179.4C834.044 176.6 830.911 175.2 827.311 175.2C823.711 175.2 820.578 176.6 817.911 179.4C815.244 182.067 813.911 185.267 813.911 189C813.911 192.733 815.244 196 817.911 198.8C820.578 201.6 823.711 203 827.311 203Z" fill="black"/>
<ellipse cx="827" cy="186.5" rx="20" ry="17.5" fill="#2EC4B6"/>
<ellipse cx="867" cy="127.5" rx="20" ry="17.5" fill="#2EC4B6"/>
<ellipse cx="827" cy="109.5" rx="20" ry="17.5" fill="#2EC4B6"/>
<ellipse cx="787" cy="127.5" rx="20" ry="17.5" fill="#2EC4B6"/>
</svg>
